<?xml version="1.0" encoding="UTF-8"?>
<svg xmlns="http://www.w3.org/2000/svg" width="1200" height="420" viewBox="0 0 1200 420">
  <rect width="100%" height="100%" fill="#0f172a"/>
  <text x="60" y="24" fill="#e2e8f0" font-size="16" font-family="sans-serif">single:adx14 MaxDD window (2025-01-17 -> 2025-04-01)</text>
  <polyline fill="none" stroke="#38bdf8" stroke-width="2" points="60.0,40.0 106.7,77.9 153.3,121.8 200.0,150.1 246.7,174.9 293.3,197.3 340.0,232.8 386.7,254.6 433.3,275.9 480.0,280.7 526.7,290.5 573.3,299.9 620.0,310.3 666.7,315.8 713.3,327.7 760.0,334.3 806.7,343.3 853.3,350.8 900.0,357.7 946.7,361.6 993.3,364.9 1040.0,366.2 1086.7,367.1 1133.3,368.8 1180.0,370.0"/>
  <text x="60" y="408" fill="#94a3b8" font-size="11" font-family="sans-serif">2025-01-17</text>
  <text x="1090" y="408" fill="#94a3b8" font-size="11" font-family="sans-serif">2025-04-01</text>
  <text x="8" y="52" fill="#94a3b8" font-size="11" font-family="sans-serif">1.44</text>
  <text x="8" y="370" fill="#94a3b8" font-size="11" font-family="sans-serif">0.36</text>
</svg>